<?xml version="1.0" encoding="UTF-8"?>
<svg width="26px" height="33px" viewBox="0 0 26 33" version="1.1" xmlns="http://www.w3.org/2000/svg" xmlns:xlink="http://www.w3.org/1999/xlink">
    <title>grab</title>
    <g id="Page-1" stroke="none" stroke-width="1" fill="none" fill-rule="evenodd">
        <g id="Artboard" transform="translate(-142.000000, -221.000000)" fill-rule="nonzero">
            <g id="grab" transform="translate(142.708158, 221.253972)">
                <path d="M5.91539152,3.99415119 C5.89116955,7.92707184 5.87858802,11.3369913 5.87764692,14.2239096 L5.87764692,14.4102735 L5.69127924,14.4126325 C5.33177711,14.4163692 4.97003296,14.4197662 4.60848508,14.4291458 L4.41268879,14.4338638 L4.41504782,14.2380638 C4.42244576,13.8148092 4.41929409,13.3919905 4.41032975,12.971261 C2.94111402,12.958994 1.4704942,12.9514451 0.00128601806,12.975979 C0.00317324757,14.4395255 -0.00154482622,15.9025993 0.00128601806,17.3661467 C0.427180877,17.3743278 0.858171257,17.394224 1.28932771,17.3637877 L1.5252314,17.3472744 L1.48984207,17.5808191 C1.42813722,18.0034396 1.46936186,18.4311264 1.47096978,18.854699 C1.87747902,18.8760058 2.28675116,18.8799879 2.69766896,18.8806484 L2.87223769,18.8806484 L2.88639192,19.0552171 C2.95456619,19.9599965 2.92081498,20.8684805 2.93592792,21.7775457 C3.3581389,21.7947959 3.78312789,21.8016645 4.20745258,21.8058541 L4.39145746,21.8082132 L4.39381649,21.9922181 C4.40061052,22.8998783 4.39855344,23.8070695 4.41268879,24.7145466 C4.83885541,24.7213029 5.2680114,24.7429617 5.69836012,24.7169057 L5.91539152,24.7051105 L5.89887448,24.9197828 C5.8272428,25.8270552 5.88934775,26.7417727 5.882365,27.6515476 C6.29738942,27.6597476 6.71199864,27.6656263 7.12793648,27.6680608 L7.31429662,27.6680608 L7.31665566,27.8544247 C7.33494669,29.2558229 7.32594083,30.6583703 7.3449641,32.0605875 C9.76439234,32.0955013 12.1857078,32.0988039 14.6060797,32.0959731 C17.0840196,32.0921986 19.5614688,32.1129581 22.0394087,32.0535104 C21.9997769,30.6555952 22.1250361,29.2584056 22.0677171,27.8615019 L22.06064,27.6609837 L22.2611544,27.6657018 C22.6770318,27.6774281 23.0935962,27.6692215 23.5067259,27.6562656 C23.5221106,26.2659229 23.5238091,24.873608 23.5255982,23.4831294 L23.5255982,23.3109197 L23.6954488,23.2944064 C24.1177655,23.2540197 24.543683,23.250953 24.9716916,23.2543028 C24.9820638,21.6970044 24.9530231,20.1407025 25,18.5834097 C24.948305,16.7034017 24.9848871,14.8309869 24.9622554,12.9594658 C24.5425356,12.962759 24.1238046,12.9583806 23.7072478,12.9523887 L23.5255982,12.9500296 L23.5208895,12.7683838 C23.5152907,12.4932169 23.5168603,10.53443 23.5255982,6.89202289 C21.9960874,6.90091174 20.9275636,6.90091174 20.3200266,6.89202289 C19.7124897,6.88313404 19.3089764,7.925042 19.1094868,10.0177468 L19.1071277,9.8337419 C19.1000506,9.42164458 19.1045837,2.94556001 19.1094868,2.5314056 C19.1094868,2.54771881 17.5380559,2.54771881 16.1367653,2.5314056 C15.2025716,2.52053013 14.7285181,4.5268702 14.7146048,8.55042583 L14.7075277,8.37349806 C14.6883685,7.94909223 14.7136612,1.64007263 14.7146048,1.21146205 C13.8034881,1.20703649 12.6780464,1.25447201 11.7681602,1.23505242 L11.7681602,7.07366873 L11.7658011,6.89202289 C11.7537883,5.63510098 11.7537883,4.66955256 11.7658011,3.99537763 L5.91539152,3.99415119 Z" id="path4109" fill="#2700FF"></path>
                <path d="M10.2559992,2.70993584 C10.2559992,2.70993584 10.2654354,3.99292474 10.2559992,3.99292474 C9.27652709,4.00236089 8.3366099,3.98065775 7.35713778,3.99292474 C7.36091224,3.50507591 7.35713778,2.70993584 7.35713778,2.70993584 C7.35713778,2.70993584 10.2654354,2.70993584 10.2559992,2.70993584 Z" id="path3016" fill="#FCEF70"></path>
                <path d="M7.35713778,3.99537763 C7.3580814,9.38247429 7.36006005,11.9837681 7.35439836,17.3708648 C6.86371869,17.3821882 6.37303901,17.3821882 5.88235934,17.3718084 C5.87292319,16.8896213 5.87292319,16.4064905 5.87952849,15.9233597 C5.39167966,15.9044874 4.90383083,15.9073183 4.415982,15.9092055 C4.39994055,15.4166386 4.39616609,14.9231281 4.41503839,14.4305612 C4.9019436,14.4126325 5.38979243,14.4182942 5.87764126,14.4107453 C5.87952849,10.0182186 5.85405089,8.38884795 5.87764126,3.99537763 C6.86526012,3.99374237 7.35842562,3.99374237 7.35713778,3.99537763 Z" id="path3018" fill="#FCEF70"></path>
                <path d="M11.7681602,1.23505242 C11.7681602,1.23505242 11.7582484,0.00761021877 11.7582484,0.00336395236 C11.7582484,-0.000882314053 13.7228544,-0.00135412143 14.6947776,0.00336395236 C14.6941485,0.327338353 14.6941485,0.737586636 14.6947776,1.2341088 C17.6330997,1.26892817 19.1046695,1.28265404 19.1094868,1.27528643 C19.1038251,1.29982041 19.1094868,2.5314056 19.1094868,2.5314056 C19.1094868,2.5314056 19.590256,2.5314056 20.5517944,2.5314056 L20.5517944,5.80848392 C22.5340144,5.80848392 23.5251245,5.80848392 23.5251245,5.80848392 C23.5251245,5.80848392 23.5015341,6.91161991 23.5251245,6.91161991 C23.5408514,6.91161991 24.022724,6.91161991 24.9707423,6.91161991 C24.9556444,13.44158 24.9653951,17.3306039 24.9999943,18.5786917 C24.9528136,20.1375433 24.981122,21.6963948 24.9707423,23.2552464 C24.4876115,23.251472 24.0044808,23.2495847 23.5251245,23.3090325 C23.5232372,24.7574811 23.5222936,26.2068734 23.5062522,27.655322 C23.0250086,27.6704199 22.5428215,27.6864613 22.0625216,27.6628709 C22.0077919,26.1889447 22.0332695,24.7131312 22.0474238,23.2382613 C22.5314981,23.2429794 23.0165161,23.2429794 23.5015341,23.239205 C23.5021632,20.9556572 23.5021632,15.5131289 23.5015341,6.91161991 L20.5517944,6.91161991 C20.5712957,11.9261347 20.5712957,14.9234426 20.5517944,15.9035438 C20.0724381,15.9044874 19.5921382,15.9044874 19.1127819,15.9054311 C19.0797553,13.9455432 19.1392182,2.5314056 19.1094868,2.5314056 C19.0797553,2.5314056 16.153606,2.5314056 16.153606,2.5314056 C16.1574386,6.00315998 16.1671129,13.2627732 16.153606,14.4296176 C15.6667008,14.4399973 15.1807392,14.4399973 14.6947776,14.4305612 C14.6853414,12.4725606 14.6947776,1.2341088 14.6947776,1.2341088 C14.6947776,1.2341088 11.7681602,1.23505242 11.7681602,1.2341088 C11.7681602,1.23316519 11.7657053,12.4973467 11.7582484,14.4296176 C11.2666251,14.4437718 10.7740582,14.4447154 10.282435,14.4305612 C10.282435,10.0323728 10.2488842,5.6332408 10.2573767,1.2341088 C10.2509365,1.2341088 11.7681602,1.23505242 11.7681602,1.23505242 Z" id="path3020" fill="#FCEF70"></path>
                <path d="M0.00175216375,12.9755072 C1.47096034,12.9509733 2.94111214,12.9585222 4.41032031,12.9707892 C4.42070008,13.4576944 4.42919261,13.943656 4.41503839,14.4305612 C3.44028434,14.4532079 2.4655303,14.4362229 1.49171987,14.4437718 C1.45586251,15.4138078 1.54361868,16.3866746 1.47756565,17.3557669 C0.986885971,17.4123838 0.492431838,17.3746392 0.000808548989,17.3652031 C-0.00202229529,15.9016566 0.00363939326,14.4390537 0.00175216375,12.9755072 L0.00175216375,12.9755072 Z" id="path3026" fill="#FCEF70"></path>
                <path d="M1.51719747,17.3887935 C1.98900484,17.3161351 2.46836114,17.3435 2.94394298,17.3567106 C2.95432274,17.8464466 2.95526636,18.3371263 2.95054828,18.827806 C3.44122796,18.8306368 3.93096402,18.8296932 4.42164369,18.8362985 C4.43296707,19.8129398 4.42164369,20.7895811 4.42730538,21.7662223 C4.91137975,21.7633915 5.39639774,21.7643351 5.88141572,21.7709404 C5.87481042,22.7504125 5.94463791,23.7374336 5.84461475,24.7121876 C5.36714568,24.7555939 4.888733,24.7216237 4.41220754,24.7140748 C4.39710971,23.7459261 4.39899694,22.7777773 4.3905044,21.8096286 C3.90548642,21.8067978 3.42046843,21.7983052 2.93545045,21.7784893 C2.919409,20.814115 2.96658973,19.8478535 2.87883356,18.8863101 C2.40985703,18.8881973 1.93993688,18.8797048 1.47190396,18.8551708 C1.47001673,18.3663784 1.40585092,17.870037 1.51719747,17.3887935 L1.51719747,17.3887935 Z" id="path3030" fill="#FCEF70"></path>
                <path d="M5.91161139,24.7187929 C6.39096769,24.6810483 6.87315483,24.7036951 7.35439836,24.7065259 C7.36760897,25.68128 7.35534197,26.656034 7.35817282,27.6298444 C7.84696526,27.6279572 8.33764494,27.6279572 8.827381,27.6449423 C8.83681714,28.6196963 8.81888846,29.595394 8.83304269,30.570148 C12.7405514,30.5795842 16.6480601,30.5776969 20.5555688,30.5758097 C20.5706667,29.600112 20.5517944,28.6244144 20.5621741,27.6477731 C21.06229,27.6411678 21.5624058,27.6345625 22.0625216,27.6628709 C22.1417852,29.1254738 21.9983558,30.5890203 22.0398748,32.0535104 C19.5619425,32.1129581 17.0840101,32.091255 14.6060778,32.0950295 C12.1857059,32.0978603 9.76533407,32.0950295 7.34590583,32.0601157 C7.32608992,30.5965692 7.33646968,29.1330227 7.31476654,27.6704199 C6.83729747,27.6694763 6.3598284,27.6619273 5.88235934,27.6524912 C5.88990825,26.6749063 5.81158823,25.6907161 5.91161139,24.7187929 L5.91161139,24.7187929 Z" id="path3038" fill="#FCEF70"></path>
            </g>
        </g>
    </g>
</svg>