<?xml version="1.0" encoding="UTF-8"?>
<svg width="26px" height="33px" viewBox="0 0 26 33" version="1.1" xmlns="http://www.w3.org/2000/svg" xmlns:xlink="http://www.w3.org/1999/xlink">
    <title>pointer</title>
    <g id="Page-1" stroke="none" stroke-width="1" fill="none" fill-rule="evenodd">
        <g id="Artboard" transform="translate(-97.000000, -245.000000)" fill-rule="nonzero">
            <g id="pointer" transform="translate(97.708158, 245.000000)">
                <path d="M7.36384394,0.00047180738 C7.35723864,0.426657395 7.35525705,0.852471575 7.35204498,1.2790698 L7.34968595,1.45835661 L7.17039914,1.46543372 C6.74499496,1.47940205 6.31763561,1.4841758 5.88943833,1.48666505 C5.86620277,5.818004 5.87905857,10.1475038 5.87764692,14.4778812 L5.87764692,14.6642452 L5.69127924,14.6666042 C5.33177711,14.6703409 4.97003296,14.6737379 4.60848508,14.6831174 L4.41268879,14.6878355 L4.41504782,14.4920355 C4.42244576,14.0687808 4.41929409,13.6459622 4.41032975,13.2252326 C2.94111402,13.2129657 1.4704942,13.2054167 0.00128601806,13.2299507 C0.00317324757,14.6934972 -0.00154482622,16.1565709 0.00128601806,17.6201184 C0.427180877,17.6282995 0.858171257,17.6481956 1.28932771,17.6177593 L1.5252314,17.6012461 L1.48984207,17.8347907 C1.42813722,18.2574113 1.46936186,18.685098 1.47096978,19.1086707 C1.87747902,19.1299775 2.28675116,19.1339595 2.69766896,19.1346201 L2.87223769,19.1346201 L2.88639192,19.3091888 C2.95456619,20.2139681 2.92081498,21.1224521 2.93592792,22.0315174 C3.3581389,22.0487676 3.78312789,22.0556362 4.20745258,22.0598258 L4.39145746,22.0621849 L4.39381649,22.2461897 C4.40061052,23.1538499 4.39855344,24.0610412 4.41268879,24.9685183 C4.83885541,24.9752746 5.2680114,24.9969334 5.69836012,24.9708773 L5.91539152,24.9590822 L5.89887448,25.1737545 C5.8272428,26.0810269 5.88934775,26.9957444 5.882365,27.9055192 C6.29738942,27.9137193 6.71199864,27.919598 7.12793648,27.9220325 L7.31429662,27.9220325 L7.31665566,28.1083964 C7.33494669,29.5097946 7.32594083,30.912342 7.3449641,32.3145592 C9.76439234,32.3494729 12.1857078,32.3527756 14.6060797,32.3499448 C17.0840196,32.3461703 19.5614688,32.3669298 22.0394087,32.3074821 C21.9997769,30.9095668 22.1250361,29.5123772 22.0677171,28.1154735 L22.06064,27.9149554 L22.2611544,27.9196735 C22.6770318,27.9313998 23.0935962,27.9231931 23.5067259,27.9102373 C23.5221106,26.5198946 23.5238091,25.1275797 23.5255982,23.7371011 L23.5255982,23.5648914 L23.6954488,23.5483781 C24.1177655,23.5079914 24.543683,23.5049246 24.9716916,23.5082745 C24.9820638,21.9509761 24.9530231,20.3946741 25,18.8373814 L25,18.8326633 L25,18.8279453 C24.948305,16.9573734 24.9848871,15.0849586 24.9622554,13.2134375 C24.5425356,13.2167307 24.1238046,13.2123523 23.7072478,13.2063603 L23.5255982,13.2040013 L23.5208895,13.0223555 C23.5124914,12.6096052 23.5072033,12.1944213 23.5138124,11.779143 C23.0831315,11.7665741 22.6550928,11.7800866 22.2281411,11.7555527 L22.063001,11.7461165 L22.0512095,11.5809839 C22.0209233,11.151827 22.0358248,10.7183615 22.029982,10.2835136 C21.1169856,10.2799845 20.2048046,10.2874108 19.2934992,10.2740775 L19.1094868,10.2717185 L19.1071277,10.0877136 C19.1000506,9.67561625 19.0951476,9.26337361 19.1000506,8.8492192 C17.6995074,8.77507656 16.2951822,8.82306975 14.8938916,8.80675654 L14.7146048,8.8043975 L14.7075277,8.62746973 C14.6883685,8.2030639 14.6806309,7.77748232 14.6815745,7.34887174 C13.7704578,7.34444618 12.859696,7.35177807 11.9498098,7.33235848 L11.7681602,7.3276404 L11.7658011,7.14599456 C11.7477819,5.2606117 11.7580635,3.37462908 11.7516469,1.48902409 C11.5086623,1.486666 11.2656929,1.48477782 11.0227007,1.48430601 C10.8415493,1.48395688 10.6610849,1.48478726 10.4801298,1.48666505 L10.2866812,1.48902409 L10.2890403,1.29558306 C10.2955229,0.862879929 10.2947869,0.429962405 10.2536585,0.00047180738 C9.29020516,0.00330265165 8.32726518,0.00613349593 7.36383451,0.00047180738 L7.36384394,0.00047180738 Z" id="path4109" fill="#2700FF"></path>
                <path d="M7.36289089,0 C8.32632156,0.00566168855 9.28975223,0.00377445903 10.2531829,0.000943614758 C10.29942,0.484074371 10.2975328,0.970035971 10.2880966,1.45411034 C9.30862452,1.46354649 8.33009602,1.4512795 7.3506239,1.46354649 C7.35439836,0.97569766 7.35534197,0.48784883 7.36289089,0 L7.36289089,0 Z" id="path3016" fill="#FCEF70"></path>
                <path d="M5.88896464,1.48619324 C6.37586986,1.4833624 6.86371869,1.48430601 7.3506239,1.46354649 C7.35156752,6.85064314 7.36006005,12.2377398 7.35439836,17.6248365 C6.86371869,17.6361598 6.37303901,17.6361598 5.88235934,17.6257801 C5.87292319,17.1435929 5.87292319,16.6604622 5.87952849,16.1773314 C5.39167966,16.1584591 4.90383083,16.16129 4.415982,16.1631772 C4.39994055,15.6706103 4.39616609,15.1770998 4.41503839,14.6845329 C4.9019436,14.6666042 5.38979243,14.6722659 5.87764126,14.664717 C5.87952849,10.2721903 5.86537427,5.87966356 5.88896464,1.48619324 L5.88896464,1.48619324 Z" id="path3018" fill="#FCEF70"></path>
                <path d="M10.2937583,1.48808047 C10.7797199,1.48147517 11.2656815,1.4841921 11.7516431,1.48902409 C11.7582484,3.43664495 11.7450378,5.38520943 11.7657974,7.33283029 C12.7377206,7.35830788 13.7096438,7.34415366 14.681567,7.34887174 C14.6806233,7.83483334 14.681567,8.32079494 14.7098754,8.80675654 C16.1724783,8.83034691 17.637912,8.77184279 19.0995713,8.8492192 C19.0939096,9.32385743 19.0967404,9.79849565 19.1071202,10.2731339 C20.0809306,10.2910626 21.0556846,10.2797392 22.0304387,10.2835136 C22.037044,10.7713625 22.0059047,11.2620421 22.0578035,11.7480037 C22.5418779,11.7904664 23.0278395,11.7649888 23.5128575,11.779143 C23.5053086,12.2547249 23.509083,12.7303067 23.52135,13.2058885 C24.0007063,13.2143811 24.4810062,13.2181555 24.9622497,13.2143811 C24.9848965,15.0874564 24.9480955,16.9605317 24.9999943,18.8326633 C24.9528136,20.3915149 24.981122,21.9503665 24.9707423,23.5092181 C24.4876115,23.5054436 24.0044808,23.5035564 23.5251245,23.5630041 C23.5232372,25.0114528 23.5222936,26.460845 23.5062522,27.9092937 C23.0250086,27.9243915 22.5428215,27.940433 22.0625216,27.9168426 C22.0077919,26.4429164 22.0332695,24.9671029 22.0474238,23.492233 C22.5314981,23.4969511 23.0165161,23.4969511 23.5015341,23.4931766 C23.5024777,20.0678551 23.5053086,16.6434771 23.5071958,13.2181555 C23.0231214,13.2115502 22.539047,13.2124938 22.0549727,13.2181555 C22.0276078,12.7416301 22.0587471,12.2622738 22.0200589,11.7866919 C21.539759,11.6942177 21.0490793,11.7508346 20.5640614,11.7489474 C20.5536816,13.2181555 20.5810464,14.6873637 20.5517944,16.1575155 C20.0724381,16.1584591 19.5921382,16.1584591 19.1127819,16.1594027 C19.0797553,14.1995149 19.1137255,12.239627 19.1014585,10.2797392 C18.1191555,10.2740775 17.1368526,10.2769083 16.1554932,10.2797392 C16.1554932,11.7480037 16.170591,13.2162683 16.153606,14.6835893 C15.6667008,14.693969 15.1807392,14.693969 14.6947776,14.6845329 C14.6853414,12.7265322 14.6834542,10.767588 14.7070446,8.80958738 C13.723798,8.80486931 12.741495,8.80392569 11.7582484,8.81524907 C11.7478687,10.7713625 11.7657974,12.7274759 11.7582484,14.6835893 C11.2666251,14.6977435 10.7740582,14.6986871 10.282435,14.6845329 C10.282435,10.2863445 10.2852658,5.88721248 10.2937583,1.48808047 L10.2937583,1.48808047 Z" id="path3020" fill="#FCEF70"></path>
                <path d="M0.00175216375,13.2294789 C1.47096034,13.2049449 2.94111214,13.2124938 4.41032031,13.2247608 C4.42070008,13.7116661 4.42919261,14.1976277 4.41503839,14.6845329 C3.44028434,14.7071796 2.4655303,14.6901946 1.49171987,14.6977435 C1.45586251,15.6677794 1.54361868,16.6406463 1.47756565,17.6097386 C0.986885971,17.6663555 0.492431838,17.6286109 0.000808548989,17.6191748 C-0.00202229529,16.1556283 0.00363939326,14.6930254 0.00175216375,13.2294789 L0.00175216375,13.2294789 Z" id="path3026" fill="#FCEF70"></path>
                <path d="M1.51719747,17.6427651 C1.98900484,17.5701068 2.46836114,17.5974716 2.94394298,17.6106822 C2.95432274,18.1004183 2.95526636,18.591098 2.95054828,19.0817776 C3.44122796,19.0846085 3.93096402,19.0836649 4.42164369,19.0902702 C4.43296707,20.0669114 4.42164369,21.0435527 4.42730538,22.020194 C4.91137975,22.0173632 5.39639774,22.0183068 5.88141572,22.0249121 C5.87481042,23.0043842 5.94463791,23.9914052 5.84461475,24.9661593 C5.36714568,25.0095656 4.888733,24.9755954 4.41220754,24.9680465 C4.39710971,23.9998978 4.39899694,23.031749 4.3905044,22.0636003 C3.90548642,22.0607694 3.42046843,22.0522769 2.93545045,22.032461 C2.919409,21.0680867 2.96658973,20.1018252 2.87883356,19.1402818 C2.40985703,19.142169 1.93993688,19.1336765 1.47190396,19.1091425 C1.47001673,18.62035 1.40585092,18.1240087 1.51719747,17.6427651 L1.51719747,17.6427651 Z" id="path3030" fill="#FCEF70"></path>
                <path d="M5.91161139,24.9727646 C6.39096769,24.93502 6.87315483,24.9576667 7.35439836,24.9604976 C7.36760897,25.9352516 7.35534197,26.9100057 7.35817282,27.8838161 C7.84696526,27.8819289 8.33764494,27.8819289 8.827381,27.8989139 C8.83681714,28.873668 8.81888846,29.8493656 8.83304269,30.8241197 C12.7405514,30.8335558 16.6480601,30.8316686 20.5555688,30.8297814 C20.5706667,29.8540837 20.5517944,28.8783861 20.5621741,27.9017448 C21.06229,27.8951395 21.5624058,27.8885342 22.0625216,27.9168426 C22.1417852,29.3794455 21.9983558,30.842992 22.0398748,32.3074821 C19.5619425,32.3669298 17.0840101,32.3452267 14.6060778,32.3490011 C12.1857059,32.351832 9.76533407,32.3490011 7.34590583,32.3140874 C7.32608992,30.8505409 7.33646968,29.3869944 7.31476654,27.9243915 C6.83729747,27.9234479 6.3598284,27.915899 5.88235934,27.9064629 C5.88990825,26.928878 5.81158823,25.9446878 5.91161139,24.9727646 L5.91161139,24.9727646 Z" id="path3038" fill="#FCEF70"></path>
            </g>
        </g>
    </g>
</svg>